<svg viewBox="0 0 1576 468" xmlns="http://www.w3.org/2000/svg" font-family="ui-sans-serif, system-ui, 'Segoe UI', 'Malgun Gothic', sans-serif" role="img" aria-labelledby="ttl desc">
  <title id="ttl">Drawe 주요 사용자 여정</title>
  <desc id="desc">로그인부터 프로젝트 생성, 레퍼런스 보드(키워드 검색 + 좋아요·싫어요 피드백, 원하는 레퍼런스가 없으면 보드에서 AI 이미지 생성), 그림 작업 후 업로드, 가이드 진단·코칭(ViTPose 관찰), 완성작 갤러리까지 이어지는 사용자 여정. 레퍼런스 탐색·생성 축과 가이드 코칭 축은 분리된다.</desc>

  <defs>
    <g id="ic-login" stroke="currentColor" stroke-width="1.7" fill="none" stroke-linejoin="round" stroke-linecap="round"><path d="M13 4.5h4a1 1 0 0 1 1 1v13a1 1 0 0 1-1 1h-4"/><path d="M4.5 12h9"/><path d="M10 8.5L13.5 12 10 15.5"/></g>
    <g id="ic-palette" stroke="currentColor" stroke-width="1.7" fill="none" stroke-linejoin="round"><path d="M12 4.5a7.5 7.5 0 1 0 0 15c1.1 0 1.5-1 .9-1.7-.6-.8-.2-1.8.9-1.8H17a3 3 0 0 0 3-3 7.4 7.4 0 0 0-8-8.5z"/><circle cx="8" cy="11" r="1.1" fill="currentColor" stroke="none"/><circle cx="9.6" cy="7.6" r="1.1" fill="currentColor" stroke="none"/><circle cx="14" cy="7.6" r="1.1" fill="currentColor" stroke="none"/><circle cx="16" cy="11" r="1.1" fill="currentColor" stroke="none"/></g>
    <g id="ic-search" stroke="currentColor" stroke-width="1.7" fill="none" stroke-linejoin="round" stroke-linecap="round"><circle cx="11" cy="11" r="6"/><path d="M15.5 15.5L20 20"/></g>
    <g id="ic-heart" stroke="currentColor" stroke-width="1.7" fill="currentColor" stroke-linejoin="round"><path d="M12 19C6 14.8 4.6 11.6 4.6 9.1 4.6 6.9 6.4 5.4 8.4 5.4c1.5 0 2.7.8 3.6 2 .9-1.2 2.1-2 3.6-2 2 0 3.8 1.5 3.8 3.7 0 2.5-1.4 5.7-7.4 9.9z"/></g>
    <g id="ic-spark" stroke="currentColor" stroke-width="1.7" fill="none" stroke-linejoin="round" stroke-linecap="round"><path d="M12 4.5c.7 4 2.8 6.1 6.8 6.8-4 .7-6.1 2.8-6.8 6.7-.7-3.9-2.8-6-6.8-6.7 4-.7 6.1-2.8 6.8-6.8z"/></g>
    <g id="ic-pencil" stroke="currentColor" stroke-width="1.7" fill="none" stroke-linejoin="round" stroke-linecap="round"><path d="M5 19l1-4 9.4-9.4a1.8 1.8 0 0 1 2.5 0l1 1a1.8 1.8 0 0 1 0 2.5L9.5 18.5z"/><path d="M14 7l3 3"/></g>
    <g id="ic-guide" stroke="currentColor" stroke-width="1.7" fill="none" stroke-linejoin="round" stroke-linecap="round"><circle cx="11" cy="11" r="6"/><path d="M15.5 15.5L20 20"/><path d="M8.5 11l1.8 1.8L14 9"/></g>
    <g id="ic-gallery" stroke="currentColor" stroke-width="1.7" fill="none" stroke-linejoin="round"><rect x="4.5" y="4.5" width="6" height="6" rx="1.2"/><rect x="13.5" y="4.5" width="6" height="6" rx="1.2"/><rect x="4.5" y="13.5" width="6" height="6" rx="1.2"/><rect x="13.5" y="13.5" width="6" height="6" rx="1.2"/></g>
    <marker id="j-indigo" markerWidth="9" markerHeight="9" refX="6.5" refY="3" orient="auto"><path d="M0 0l6 3-6 3z" fill="#6E5AC8"/></marker>
    <marker id="j-teal" markerWidth="9" markerHeight="9" refX="6.5" refY="3" orient="auto"><path d="M0 0l6 3-6 3z" fill="#1E9486"/></marker>
    <marker id="j-slate" markerWidth="9" markerHeight="9" refX="6.5" refY="3" orient="auto"><path d="M0 0l6 3-6 3z" fill="#8A8579"/></marker>
    <marker id="j-orange" markerWidth="9" markerHeight="9" refX="6.5" refY="3" orient="auto"><path d="M0 0l6 3-6 3z" fill="#C9743A"/></marker>
    <marker id="j-rose" markerWidth="9" markerHeight="9" refX="6.5" refY="3" orient="auto"><path d="M0 0l6 3-6 3z" fill="#C8629A"/></marker>
    <marker id="j-green2" markerWidth="9" markerHeight="9" refX="6.5" refY="3" orient="auto"><path d="M0 0l6 3-6 3z" fill="#45A064"/></marker>
  </defs>

  <rect x="8" y="8" width="1560" height="452" rx="22" fill="#FBFAF7" stroke="#ECE7DF" stroke-width="1.5"/>

  <text x="44" y="54" font-size="26" font-weight="800" fill="#23221F">Drawe<tspan fill="#9A948B" font-weight="600"> · 주요 사용자 여정</tspan></text>
  <text x="46" y="80" font-size="13" fill="#8C867C">로그인 → 프로젝트 → 레퍼런스 보드(키워드 검색 · 좋아요/싫어요 · AI 생성) → 그림 작업·업로드 → 가이드 코칭 → 갤러리</text>
  <line x1="44" y1="96" x2="1532" y2="96" stroke="#ECE7DF" stroke-width="1.5"/>

  <!-- axis group labels -->
  <text x="578" y="124" font-size="11" font-weight="700" fill="#1E9486">◤ 레퍼런스 탐색·생성 축</text>
  <text x="1208" y="124" font-size="11" font-weight="700" fill="#C9743A">◤ 가이드 코칭 축 ⭐</text>

  <!-- ===== CONNECTORS (spine y=360) ===== -->
  <path d="M218 360 L250 360" fill="none" stroke="#6E5AC8" stroke-width="2.6" marker-end="url(#j-indigo)"/>
  <path d="M434 360 L466 360" fill="none" stroke="#1E9486" stroke-width="2.6" marker-end="url(#j-teal)"/>
  <path d="M650 360 L682 360" fill="none" stroke="#8A8579" stroke-width="2.4" stroke-dasharray="5 4" marker-end="url(#j-slate)"/>
  <text x="666" y="348" font-size="10" font-weight="700" text-anchor="middle" fill="#8A8579">담기</text>
  <path d="M866 360 L898 360" fill="none" stroke="#C9743A" stroke-width="2.6" marker-end="url(#j-orange)"/>
  <text x="882" y="348" font-size="10" font-weight="700" text-anchor="middle" fill="#C9743A">업로드</text>
  <path d="M1082 360 L1114 360" fill="none" stroke="#C9743A" stroke-width="2.6" marker-end="url(#j-orange)"/>
  <path d="M1298 360 L1330 360" fill="none" stroke="#45A064" stroke-width="2.6" marker-end="url(#j-green2)"/>

  <!-- branch connector: board -> AI 생성 -->
  <path d="M560 314 C 578 268 600 246 626 238" fill="none" stroke="#C8629A" stroke-width="2.4" marker-end="url(#j-rose)"/>

  <!-- ===== AI 생성 (branch above board) ===== -->
  <g>
    <rect x="628" y="156" width="196" height="80" rx="13" fill="#FFFFFF" stroke="#E6A9C6" stroke-width="1.6"/>
    <g transform="translate(644,186)" color="#C8629A"><rect x="-2" y="-2" width="30" height="30" rx="8" fill="#FBE7F1"/><use href="#ic-spark" x="1.5" y="1.5"/></g>
    <text x="682" y="190" font-size="14" font-weight="700" fill="#2A2925">AI 이미지 생성</text>
    <text x="682" y="210" font-size="10.5" fill="#9A948B">프롬프트 → Bedrock (보드 통합)</text>
    <rect x="628" y="143" width="120" height="20" rx="10" fill="#FBE7F1" stroke="#E6A9C6"/><text x="688" y="157" font-size="10" font-weight="700" text-anchor="middle" fill="#B14E84">원하는 레퍼런스 없으면</text>
  </g>

  <!-- ===== SPINE BOXES (y=314) ===== -->
  <g>
    <rect x="38" y="314" width="180" height="92" rx="13" fill="#FFFFFF" stroke="#9DBAEC" stroke-width="1.6"/>
    <g transform="translate(52,346)" color="#3B6FD4"><rect x="-2" y="-2" width="30" height="30" rx="8" fill="#E5EDFB"/><use href="#ic-login" x="1.5" y="1.5"/></g>
    <text x="88" y="354" font-size="14.5" font-weight="700" fill="#2A2925">로그인</text>
    <text x="88" y="374" font-size="11" fill="#9A948B">Google · 일반 로그인</text>
    <circle cx="38" cy="314" r="13" fill="#3B6FD4"/><text x="38" y="318.5" font-size="13" font-weight="800" text-anchor="middle" fill="#FFFFFF">1</text>
  </g>
  <g>
    <rect x="254" y="314" width="180" height="92" rx="13" fill="#FFFFFF" stroke="#B9AEE6" stroke-width="1.6"/>
    <g transform="translate(268,346)" color="#6E5AC8"><rect x="-2" y="-2" width="30" height="30" rx="8" fill="#ECE6FA"/><use href="#ic-palette" x="1.5" y="1.5"/></g>
    <text x="304" y="354" font-size="14.5" font-weight="700" fill="#2A2925">프로젝트 생성</text>
    <text x="304" y="374" font-size="11" fill="#9A948B">주제·기법·분위기</text>
    <circle cx="254" cy="314" r="13" fill="#6E5AC8"/><text x="254" y="318.5" font-size="13" font-weight="800" text-anchor="middle" fill="#FFFFFF">2</text>
  </g>
  <g>
    <rect x="470" y="314" width="180" height="92" rx="13" fill="#FFFFFF" stroke="#6FC59E" stroke-width="2"/>
    <g transform="translate(484,346)" color="#1E9486"><rect x="-2" y="-2" width="30" height="30" rx="8" fill="#DBF1EC"/><use href="#ic-search" x="1.5" y="1.5"/></g>
    <text x="520" y="349" font-size="14" font-weight="700" fill="#2A2925">레퍼런스 보드</text>
    <text x="520" y="367" font-size="10.5" fill="#9A948B">키워드 검색 · 좋아요/싫어요</text>
    <text x="520" y="382" font-size="9.5" fill="#B0AAA0">Komoran → CLIP → Pinecone</text>
    <circle cx="470" cy="314" r="13" fill="#1B9E7C"/><text x="470" y="318.5" font-size="13" font-weight="800" text-anchor="middle" fill="#FFFFFF">3</text>
  </g>
  <g>
    <rect x="686" y="314" width="180" height="92" rx="13" fill="#FFFFFF" stroke="#E6A9C6" stroke-width="1.6"/>
    <g transform="translate(700,346)" color="#C8629A"><rect x="-2" y="-2" width="30" height="30" rx="8" fill="#FBE7F1"/><use href="#ic-heart" x="1.5" y="1.5"/></g>
    <text x="736" y="354" font-size="14.5" font-weight="700" fill="#2A2925">담기 · 핀</text>
    <text x="736" y="374" font-size="11" fill="#9A948B">마음에 드는 레퍼런스</text>
    <circle cx="686" cy="314" r="13" fill="#C8629A"/><text x="686" y="318.5" font-size="13" font-weight="800" text-anchor="middle" fill="#FFFFFF">4</text>
  </g>
  <g>
    <rect x="902" y="314" width="180" height="92" rx="13" fill="#F7F6F3" stroke="#B7B1A6" stroke-width="1.6" stroke-dasharray="6 4"/>
    <g transform="translate(916,346)" color="#7E7A70"><rect x="-2" y="-2" width="30" height="30" rx="8" fill="#EDEDEA"/><use href="#ic-pencil" x="1.5" y="1.5"/></g>
    <text x="952" y="354" font-size="14.5" font-weight="700" fill="#4A463F">그림 작업</text>
    <text x="952" y="374" font-size="11" fill="#9A948B">사용자가 직접 (외부 툴)</text>
    <circle cx="902" cy="314" r="13" fill="#8A8579"/><text x="902" y="318.5" font-size="13" font-weight="800" text-anchor="middle" fill="#FFFFFF">5</text>
    <rect x="1036" y="301" width="46" height="20" rx="10" fill="#EDEDEA" stroke="#B7B1A6"/><text x="1059" y="315" font-size="10.5" font-weight="700" text-anchor="middle" fill="#75716A">외부</text>
  </g>
  <g>
    <rect x="1118" y="314" width="180" height="92" rx="13" fill="#FFFFFF" stroke="#E6AE7C" stroke-width="2"/>
    <g transform="translate(1132,346)" color="#C9743A"><rect x="-2" y="-2" width="30" height="30" rx="8" fill="#FAE6D6"/><use href="#ic-guide" x="1.5" y="1.5"/></g>
    <text x="1168" y="349" font-size="14" font-weight="700" fill="#2A2925">가이드 진단·코칭</text>
    <text x="1168" y="367" font-size="10.5" fill="#9A948B">업로드 → ViTPose 관찰</text>
    <text x="1168" y="382" font-size="9.5" fill="#B0AAA0">→ 결정적 스코어러 → Grok</text>
    <circle cx="1118" cy="314" r="13" fill="#C9743A"/><text x="1118" y="318.5" font-size="13" font-weight="800" text-anchor="middle" fill="#FFFFFF">6</text>
  </g>
  <g>
    <rect x="1334" y="314" width="180" height="92" rx="13" fill="#FFFFFF" stroke="#93CBA1" stroke-width="1.6"/>
    <g transform="translate(1348,346)" color="#45A064"><rect x="-2" y="-2" width="30" height="30" rx="8" fill="#E4F3E9"/><use href="#ic-gallery" x="1.5" y="1.5"/></g>
    <text x="1384" y="354" font-size="14.5" font-weight="700" fill="#2A2925">완성작</text>
    <text x="1384" y="374" font-size="11" fill="#9A948B">갤러리 저장</text>
    <circle cx="1334" cy="314" r="13" fill="#45A064"/><text x="1334" y="318.5" font-size="13" font-weight="800" text-anchor="middle" fill="#FFFFFF">7</text>
  </g>

  <text x="784" y="436" font-size="10.5" font-weight="600" text-anchor="middle" fill="#A39E94">— 5번만 우리 시스템 밖(외부 드로잉 툴), 업로드로 다시 진입 · 가이드 코칭은 별도 축 —</text>
</svg>
