<svg viewBox="0 0 1576 452" xmlns="http://www.w3.org/2000/svg" font-family="ui-sans-serif, system-ui, 'Segoe UI', 'Malgun Gothic', sans-serif" role="img" aria-labelledby="ttl desc">
  <title id="ttl">Drawe 주요 사용자 여정</title>
  <desc id="desc">로그인(Google·일반)부터 프로젝트 생성, 채팅 레퍼런스 요청, 맞춤 추천, 이미지 핀 또는 외부에서의 그림 작업 후 업로드, 가이드 진단·코칭, 완성작 갤러리 저장까지 이어지는 사용자 여정.</desc>

  <defs>
    <g id="ic-login" stroke="currentColor" stroke-width="1.7" fill="none" stroke-linejoin="round" stroke-linecap="round"><path d="M13 4.5h4a1 1 0 0 1 1 1v13a1 1 0 0 1-1 1h-4"/><path d="M4.5 12h9"/><path d="M10 8.5L13.5 12 10 15.5"/></g>
    <g id="ic-palette" stroke="currentColor" stroke-width="1.7" fill="none" stroke-linejoin="round"><path d="M12 4.5a7.5 7.5 0 1 0 0 15c1.1 0 1.5-1 .9-1.7-.6-.8-.2-1.8.9-1.8H17a3 3 0 0 0 3-3 7.4 7.4 0 0 0-8-8.5z"/><circle cx="8" cy="11" r="1.1" fill="currentColor" stroke="none"/><circle cx="9.6" cy="7.6" r="1.1" fill="currentColor" stroke="none"/><circle cx="14" cy="7.6" r="1.1" fill="currentColor" stroke="none"/><circle cx="16" cy="11" r="1.1" fill="currentColor" stroke="none"/></g>
    <g id="ic-chat" stroke="currentColor" stroke-width="1.7" fill="none" stroke-linejoin="round" stroke-linecap="round"><path d="M5 6.5h14v9H11l-4 3v-3H5z"/><path d="M8.5 11h7"/></g>
    <g id="ic-images" stroke="currentColor" stroke-width="1.7" fill="none" stroke-linejoin="round" stroke-linecap="round"><path d="M8 7.5V5.5a1 1 0 0 1 1-1h9a1 1 0 0 1 1 1V14a1 1 0 0 1-1 1h-2"/><rect x="4.5" y="7.5" width="11.5" height="10.5" rx="1.6"/><path d="M4.5 14.5l3-2.6 2.6 2.2 2.4-2.4 3.5 3.3"/><circle cx="8" cy="11" r="1.1"/></g>
    <g id="ic-heart" stroke="currentColor" stroke-width="1.7" fill="currentColor" stroke-linejoin="round"><path d="M12 19C6 14.8 4.6 11.6 4.6 9.1 4.6 6.9 6.4 5.4 8.4 5.4c1.5 0 2.7.8 3.6 2 .9-1.2 2.1-2 3.6-2 2 0 3.8 1.5 3.8 3.7 0 2.5-1.4 5.7-7.4 9.9z"/></g>
    <g id="ic-pencil" stroke="currentColor" stroke-width="1.7" fill="none" stroke-linejoin="round" stroke-linecap="round"><path d="M5 19l1-4 9.4-9.4a1.8 1.8 0 0 1 2.5 0l1 1a1.8 1.8 0 0 1 0 2.5L9.5 18.5z"/><path d="M14 7l3 3"/></g>
    <g id="ic-upload" stroke="currentColor" stroke-width="1.7" fill="none" stroke-linejoin="round" stroke-linecap="round"><path d="M12 15.5V5.5"/><path d="M8 9l4-4 4 4"/><path d="M5 14v3.5a1 1 0 0 0 1 1h12a1 1 0 0 0 1-1V14"/></g>
    <g id="ic-guide" stroke="currentColor" stroke-width="1.7" fill="none" stroke-linejoin="round" stroke-linecap="round"><circle cx="11" cy="11" r="6"/><path d="M15.5 15.5L20 20"/><path d="M8.5 11l1.8 1.8L14 9"/></g>
    <g id="ic-gallery" stroke="currentColor" stroke-width="1.7" fill="none" stroke-linejoin="round"><rect x="4.5" y="4.5" width="6" height="6" rx="1.2"/><rect x="13.5" y="4.5" width="6" height="6" rx="1.2"/><rect x="4.5" y="13.5" width="6" height="6" rx="1.2"/><rect x="13.5" y="13.5" width="6" height="6" rx="1.2"/></g>
    <marker id="j-indigo" markerWidth="9" markerHeight="9" refX="6.5" refY="3" orient="auto"><path d="M0 0l6 3-6 3z" fill="#6E5AC8"/></marker>
    <marker id="j-teal" markerWidth="9" markerHeight="9" refX="6.5" refY="3" orient="auto"><path d="M0 0l6 3-6 3z" fill="#1E9486"/></marker>
    <marker id="j-green" markerWidth="9" markerHeight="9" refX="6.5" refY="3" orient="auto"><path d="M0 0l6 3-6 3z" fill="#1B9E7C"/></marker>
    <marker id="j-slate" markerWidth="9" markerHeight="9" refX="6.5" refY="3" orient="auto"><path d="M0 0l6 3-6 3z" fill="#8A8579"/></marker>
    <marker id="j-orange" markerWidth="9" markerHeight="9" refX="6.5" refY="3" orient="auto"><path d="M0 0l6 3-6 3z" fill="#C9743A"/></marker>
    <marker id="j-rose" markerWidth="9" markerHeight="9" refX="6.5" refY="3" orient="auto"><path d="M0 0l6 3-6 3z" fill="#C8629A"/></marker>
    <marker id="j-green2" markerWidth="9" markerHeight="9" refX="6.5" refY="3" orient="auto"><path d="M0 0l6 3-6 3z" fill="#45A064"/></marker>
  </defs>

  <rect x="8" y="8" width="1560" height="436" rx="22" fill="#FBFAF7" stroke="#ECE7DF" stroke-width="1.5"/>

  <text x="44" y="54" font-size="26" font-weight="800" fill="#23221F">Drawe<tspan fill="#9A948B" font-weight="600"> · 주요 사용자 여정</tspan></text>
  <text x="46" y="80" font-size="13" fill="#8C867C">로그인 → 프로젝트 → 레퍼런스 요청 → 핀 / 외부 작업·업로드 → 가이드 진단 → 갤러리</text>
  <line x1="44" y1="96" x2="1532" y2="96" stroke="#ECE7DF" stroke-width="1.5"/>

  <!-- ===== CONNECTORS (spine y=346) ===== -->
  <path d="M218 346 L250 346" fill="none" stroke="#6E5AC8" stroke-width="2.6" marker-end="url(#j-indigo)"/>
  <path d="M434 346 L466 346" fill="none" stroke="#1E9486" stroke-width="2.6" marker-end="url(#j-teal)"/>
  <path d="M650 346 L682 346" fill="none" stroke="#1B9E7C" stroke-width="2.6" marker-end="url(#j-green)"/>
  <path d="M866 346 L898 346" fill="none" stroke="#8A8579" stroke-width="2.4" stroke-dasharray="5 4" marker-end="url(#j-slate)"/>
  <path d="M1082 346 L1114 346" fill="none" stroke="#C9743A" stroke-width="2.6" marker-end="url(#j-orange)"/>
  <text x="1098" y="334" font-size="10" font-weight="700" text-anchor="middle" fill="#C9743A">업로드</text>
  <path d="M1298 346 L1330 346" fill="none" stroke="#45A064" stroke-width="2.6" marker-end="url(#j-green2)"/>
  <path d="M790 300 C 810 262 850 240 882 234" fill="none" stroke="#C8629A" stroke-width="2.4" marker-end="url(#j-rose)"/>

  <!-- ===== PIN (branch) ===== -->
  <g>
    <rect x="799" y="152" width="172" height="80" rx="13" fill="#FFFFFF" stroke="#E6A9C6" stroke-width="1.6"/>
    <g transform="translate(815,182)" color="#C8629A"><rect x="-2" y="-2" width="30" height="30" rx="8" fill="#FBE7F1"/><use href="#ic-heart" x="1.5" y="1.5"/></g>
    <text x="851" y="186" font-size="14.5" font-weight="700" fill="#2A2925">이미지 핀</text>
    <text x="851" y="206" font-size="11" fill="#9A948B">마음에 드는 이미지</text>
    <rect x="799" y="139" width="46" height="20" rx="10" fill="#FBE7F1" stroke="#E6A9C6"/><text x="822" y="153" font-size="10.5" font-weight="700" text-anchor="middle" fill="#B14E84">선택</text>
  </g>

  <!-- ===== SPINE BOXES ===== -->
  <g>
    <rect x="38" y="300" width="180" height="92" rx="13" fill="#FFFFFF" stroke="#9DBAEC" stroke-width="1.6"/>
    <g transform="translate(52,332)" color="#3B6FD4"><rect x="-2" y="-2" width="30" height="30" rx="8" fill="#E5EDFB"/><use href="#ic-login" x="1.5" y="1.5"/></g>
    <text x="88" y="340" font-size="14.5" font-weight="700" fill="#2A2925">로그인</text>
    <text x="88" y="360" font-size="11" fill="#9A948B">Google · 일반 로그인</text>
    <circle cx="38" cy="300" r="13" fill="#3B6FD4"/><text x="38" y="304.5" font-size="13" font-weight="800" text-anchor="middle" fill="#FFFFFF">1</text>
  </g>
  <g>
    <rect x="254" y="300" width="180" height="92" rx="13" fill="#FFFFFF" stroke="#B9AEE6" stroke-width="1.6"/>
    <g transform="translate(268,332)" color="#6E5AC8"><rect x="-2" y="-2" width="30" height="30" rx="8" fill="#ECE6FA"/><use href="#ic-palette" x="1.5" y="1.5"/></g>
    <text x="304" y="340" font-size="14.5" font-weight="700" fill="#2A2925">프로젝트 생성</text>
    <text x="304" y="360" font-size="11" fill="#9A948B">주제·기법·분위기</text>
    <circle cx="254" cy="300" r="13" fill="#6E5AC8"/><text x="254" y="304.5" font-size="13" font-weight="800" text-anchor="middle" fill="#FFFFFF">2</text>
  </g>
  <g>
    <rect x="470" y="300" width="180" height="92" rx="13" fill="#FFFFFF" stroke="#7FCFC2" stroke-width="1.6"/>
    <g transform="translate(484,332)" color="#1E9486"><rect x="-2" y="-2" width="30" height="30" rx="8" fill="#DBF1EC"/><use href="#ic-chat" x="1.5" y="1.5"/></g>
    <text x="520" y="340" font-size="14.5" font-weight="700" fill="#2A2925">레퍼런스 요청</text>
    <text x="520" y="360" font-size="11" fill="#9A948B">채팅으로</text>
    <circle cx="470" cy="300" r="13" fill="#1E9486"/><text x="470" y="304.5" font-size="13" font-weight="800" text-anchor="middle" fill="#FFFFFF">3</text>
  </g>
  <g>
    <rect x="686" y="300" width="180" height="92" rx="13" fill="#FFFFFF" stroke="#6FC59E" stroke-width="2"/>
    <g transform="translate(700,332)" color="#1B9E7C"><rect x="-2" y="-2" width="30" height="30" rx="8" fill="#DDF1E8"/><use href="#ic-images" x="1.5" y="1.5"/></g>
    <text x="736" y="340" font-size="14.5" font-weight="700" fill="#2A2925">맞춤 레퍼런스 추천</text>
    <text x="736" y="360" font-size="11" fill="#9A948B">+ 미술 조언</text>
    <circle cx="686" cy="300" r="13" fill="#1B9E7C"/><text x="686" y="304.5" font-size="13" font-weight="800" text-anchor="middle" fill="#FFFFFF">4</text>
  </g>
  <g>
    <rect x="902" y="300" width="180" height="92" rx="13" fill="#F7F6F3" stroke="#B7B1A6" stroke-width="1.6" stroke-dasharray="6 4"/>
    <g transform="translate(916,332)" color="#7E7A70"><rect x="-2" y="-2" width="30" height="30" rx="8" fill="#EDEDEA"/><use href="#ic-pencil" x="1.5" y="1.5"/></g>
    <text x="952" y="340" font-size="14.5" font-weight="700" fill="#4A463F">그림 작업</text>
    <text x="952" y="360" font-size="11" fill="#9A948B">사용자가 직접 (외부 툴)</text>
    <circle cx="902" cy="300" r="13" fill="#8A8579"/><text x="902" y="304.5" font-size="13" font-weight="800" text-anchor="middle" fill="#FFFFFF">5</text>
    <rect x="1036" y="287" width="46" height="20" rx="10" fill="#EDEDEA" stroke="#B7B1A6"/><text x="1059" y="301" font-size="10.5" font-weight="700" text-anchor="middle" fill="#75716A">외부</text>
  </g>
  <g>
    <rect x="1118" y="300" width="180" height="92" rx="13" fill="#FFFFFF" stroke="#E6AE7C" stroke-width="2"/>
    <g transform="translate(1132,332)" color="#C9743A"><rect x="-2" y="-2" width="30" height="30" rx="8" fill="#FAE6D6"/><use href="#ic-guide" x="1.5" y="1.5"/></g>
    <text x="1168" y="340" font-size="14" font-weight="700" fill="#2A2925">가이드 진단·코칭</text>
    <text x="1168" y="360" font-size="11" fill="#9A948B">그림 업로드 기반</text>
    <circle cx="1118" cy="300" r="13" fill="#C9743A"/><text x="1118" y="304.5" font-size="13" font-weight="800" text-anchor="middle" fill="#FFFFFF">6</text>
  </g>
  <g>
    <rect x="1334" y="300" width="180" height="92" rx="13" fill="#FFFFFF" stroke="#93CBA1" stroke-width="1.6"/>
    <g transform="translate(1348,332)" color="#45A064"><rect x="-2" y="-2" width="30" height="30" rx="8" fill="#E4F3E9"/><use href="#ic-gallery" x="1.5" y="1.5"/></g>
    <text x="1384" y="340" font-size="14.5" font-weight="700" fill="#2A2925">완성작</text>
    <text x="1384" y="360" font-size="11" fill="#9A948B">갤러리 저장</text>
    <circle cx="1334" cy="300" r="13" fill="#45A064"/><text x="1334" y="304.5" font-size="13" font-weight="800" text-anchor="middle" fill="#FFFFFF">7</text>
  </g>

  <text x="952" y="416" font-size="10.5" font-weight="600" text-anchor="middle" fill="#A39E94">— 5번만 우리 시스템 밖, 업로드로 다시 진입 —</text>
</svg>
